<svg xmlns="http://www.w3.org/2000/svg" viewBox="0 0 1200 675" role="img" aria-labelledby="title desc">
  <title id="title">Gameplay Mechanics</title>
  <desc id="desc">Clean gameplay-themed artwork with a controller, combat symbols, and player icons.</desc>
  <defs>
    <linearGradient id="bg" x1="0" y1="0" x2="1" y2="1">
      <stop offset="0%" stop-color="#efe6d7"/>
      <stop offset="100%" stop-color="#d7e2e8"/>
    </linearGradient>
  </defs>
  <rect width="1200" height="675" fill="url(#bg)"/>
  <text x="80" y="88" font-family="Segoe UI, Helvetica Neue, Arial, sans-serif" font-size="46" font-weight="600" fill="#22323a">Gameplay Mechanics</text>

  <g fill="#fffaf2" stroke="#22323a" stroke-width="4">
    <circle cx="278" cy="358" r="96"/>
    <rect x="448" y="240" width="304" height="198" rx="92"/>
    <circle cx="922" cy="358" r="96"/>
  </g>

  <g transform="translate(210 284)">
    <g stroke="#2d6f7b" stroke-width="8" fill="none" stroke-linecap="round" stroke-linejoin="round">
      <path d="M34 146l92-92"/>
      <path d="M104 146l102-102"/>
      <path d="M154 34l40 40"/>
      <path d="M34 36l46 46"/>
      <path d="M182 128l34 34"/>
    </g>
    <g fill="#2d6f7b">
      <circle cx="72" cy="68" r="10"/>
      <circle cx="172" cy="58" r="10"/>
      <circle cx="188" cy="146" r="10"/>
    </g>
  </g>

  <g transform="translate(468 260)">
    <g fill="none" stroke="#2d6f7b" stroke-width="8" stroke-linecap="round" stroke-linejoin="round">
      <path d="M26 92c18-52 52-78 100-78h80c48 0 82 26 100 78"/>
      <path d="M26 92l24 54c12 28 38 44 68 44h96c30 0 56-16 68-44l24-54"/>
      <path d="M124 116h54"/>
      <path d="M151 89v54"/>
    </g>
    <g fill="#2d6f7b">
      <circle cx="218" cy="100" r="10"/>
      <circle cx="252" cy="74" r="10"/>
      <circle cx="286" cy="100" r="10"/>
      <circle cx="252" cy="126" r="10"/>
      <circle cx="96" cy="132" r="11"/>
      <circle cx="206" cy="132" r="11"/>
    </g>
  </g>

  <g transform="translate(838 272)">
    <g fill="#2d6f7b">
      <circle cx="48" cy="46" r="24"/>
      <circle cx="116" cy="74" r="24"/>
      <circle cx="164" cy="42" r="24"/>
    </g>
    <g fill="none" stroke="#2d6f7b" stroke-width="8" stroke-linecap="round">
      <path d="M18 118c10-30 32-46 66-46 28 0 50 10 66 32"/>
      <path d="M86 148c10-34 36-52 78-52 38 0 66 14 82 42"/>
    </g>
    <g fill="#fffaf2" stroke="#22323a" stroke-width="4">
      <circle cx="116" cy="148" r="20"/>
    </g>
    <g fill="#2d6f7b">
      <circle cx="116" cy="148" r="9"/>
    </g>
  </g>

  <g stroke="#2d6f7b" stroke-width="5" fill="none" stroke-linecap="round">
    <path d="M374 358h66" opacity="0.35"/>
    <path d="M760 358h66" opacity="0.35"/>
  </g>
</svg>
